<svg xmlns="http://www.w3.org/2000/svg" width="4096" height="512" viewBox="0 0 4096 512" fill="none">
<g opacity="0.55">
        <ellipse cx="250" cy="120" rx="90" ry="27.0" fill="#F7F9FF"/>
        <ellipse cx="299.5" cy="124" rx="64.8" ry="21.599999999999998" fill="#F7F9FF"/>
        <ellipse cx="205.0" cy="128" rx="54.0" ry="18.0" fill="#F7F9FF"/>
        </g>
<g opacity="0.45">
        <ellipse cx="700" cy="85" rx="65" ry="19.5" fill="#F7F9FF"/>
        <ellipse cx="735.75" cy="89" rx="46.8" ry="15.6" fill="#F7F9FF"/>
        <ellipse cx="667.5" cy="93" rx="39.0" ry="13.0" fill="#F7F9FF"/>
        </g>
<g opacity="0.55">
        <ellipse cx="1160" cy="155" rx="80" ry="24.0" fill="#F7F9FF"/>
        <ellipse cx="1204.0" cy="159" rx="57.599999999999994" ry="19.2" fill="#F7F9FF"/>
        <ellipse cx="1120.0" cy="163" rx="48.0" ry="16.0" fill="#F7F9FF"/>
        </g>
<g opacity="0.45">
        <ellipse cx="1520" cy="110" rx="70" ry="21.0" fill="#F7F9FF"/>
        <ellipse cx="1558.5" cy="114" rx="50.4" ry="16.8" fill="#F7F9FF"/>
        <ellipse cx="1485.0" cy="118" rx="42.0" ry="14.0" fill="#F7F9FF"/>
        </g>
<g opacity="0.55">
        <ellipse cx="2130" cy="95" rx="75" ry="22.5" fill="#F7F9FF"/>
        <ellipse cx="2171.25" cy="99" rx="54.0" ry="18.0" fill="#F7F9FF"/>
        <ellipse cx="2092.5" cy="103" rx="45.0" ry="15.0" fill="#F7F9FF"/>
        </g>
<g opacity="0.45">
        <ellipse cx="2740" cy="140" rx="90" ry="27.0" fill="#FFD7DF"/>
        <ellipse cx="2789.5" cy="144" rx="64.8" ry="21.599999999999998" fill="#FFD7DF"/>
        <ellipse cx="2695.0" cy="148" rx="54.0" ry="18.0" fill="#FFD7DF"/>
        </g>
<g opacity="0.55">
        <ellipse cx="3370" cy="105" rx="70" ry="21.0" fill="#FFD7DF"/>
        <ellipse cx="3408.5" cy="109" rx="50.4" ry="16.8" fill="#FFD7DF"/>
        <ellipse cx="3335.0" cy="113" rx="42.0" ry="14.0" fill="#FFD7DF"/>
        </g>
<g opacity="0.45">
        <ellipse cx="3840" cy="125" rx="65" ry="19.5" fill="#FFD7DF"/>
        <ellipse cx="3875.75" cy="129" rx="46.8" ry="15.6" fill="#FFD7DF"/>
        <ellipse cx="3807.5" cy="133" rx="39.0" ry="13.0" fill="#FFD7DF"/>
        </g>
</svg>
