<svg xmlns="http://www.w3.org/2000/svg" width="4096" height="512" viewBox="0 0 4096 512" fill="none">

<path d="M0 422 L0 410 
<g opacity="0.95">
            <rect x="-3" y="395" width="6" height="15" fill="#2B1C17"/>
            <polygon points="0,350 -14.0,383 14.0,383" fill="#223A31"/>
            <polygon points="0,366 -20,399 20,399" fill="#223A31"/>
        </g>
<g opacity="0.95">
            <rect x="87" y="389" width="6" height="21" fill="#2B1C17"/>
            <polygon points="90,327 73.0,373 107.0,373" fill="#223A31"/>
            <polygon points="90,349 66,395 114,395" fill="#223A31"/>
        </g>
<g opacity="0.95">
            <rect x="177" y="388" width="6" height="22" fill="#2B1C17"/>
            <polygon points="180,320 160.0,370 200.0,370" fill="#223A31"/>
            <polygon points="180,343 151,394 209,394" fill="#223A31"/>
        </g>
<g opacity="0.95">
            <rect x="267" y="385" width="6" height="25" fill="#2B1C17"/>
            <polygon points="270,310 256.0,365 284.0,365" fill="#223A31"/>
            <polygon points="270,336 250,392 290,392" fill="#223A31"/>
        </g>
<g opacity="0.95">
            <rect x="357" y="388" width="6" height="22" fill="#2B1C17"/>
            <polygon points="360,321 343.0,370 377.0,370" fill="#223A31"/>
            <polygon points="360,344 336,394 384,394" fill="#223A31"/>
        </g>
<g opacity="0.95">
            <rect x="447" y="390" width="6" height="20" fill="#2B1C17"/>
            <polygon points="450,328 430.0,373 470.0,373" fill="#223A31"/>
            <polygon points="450,349 421,395 479,395" fill="#223A31"/>
        </g>
<g opacity="0.95">
            <rect x="537" y="395" width="6" height="15" fill="#2B1C17"/>
            <polygon points="540,351 526.0,383 554.0,383" fill="#223A31"/>
            <polygon points="540,366 520,399 560,399" fill="#223A31"/>
        </g>
<g opacity="0.95">
            <rect x="627" y="398" width="6" height="12" fill="#2B1C17"/>
            <polygon points="630,362 613.0,388 647.0,388" fill="#223A31"/>
            <polygon points="630,374 606,401 654,401" fill="#223A31"/>
        </g>
<g opacity="0.95">
            <rect x="717" y="403" width="6" height="7" fill="#2B1C17"/>
            <polygon points="720,381 700.0,397 740.0,397" fill="#223A31"/>
            <polygon points="720,389 691,405 749,405" fill="#223A31"/>
        </g>
<g opacity="0.95">
            <rect x="807" y="402" width="6" height="8" fill="#2B1C17"/>
            <polygon points="810,378 796.0,396 824.0,396" fill="#223A31"/>
            <polygon points="810,386 790,404 830,404" fill="#223A31"/>
        </g>
<g opacity="0.95">
            <rect x="897" y="402" width="6" height="8" fill="#2B1C17"/>
            <polygon points="900,379 883.0,396 917.0,396" fill="#223A31"/>
            <polygon points="900,387 876,404 924,404" fill="#223A31"/>
        </g>
<g opacity="0.95">
            <rect x="987" y="397" width="6" height="13" fill="#2B1C17"/>
            <polygon points="990,359 970.0,387 1010.0,387" fill="#223A31"/>
            <polygon points="990,372 961,401 1019,401" fill="#223A31"/>
        </g>
<g opacity="0.95">
            <rect x="1077" y="394" width="6" height="16" fill="#2B1C17"/>
            <polygon points="1080,348 1066.0,382 1094.0,382" fill="#223A31"/>
            <polygon points="1080,364 1060,399 1100,399" fill="#223A31"/>
        </g>
<g opacity="0.95">
            <rect x="1167" y="389" width="6" height="21" fill="#2B1C17"/>
            <polygon points="1170,325 1153.0,372 1187.0,372" fill="#223A31"/>
            <polygon points="1170,347 1146,395 1194,395" fill="#223A31"/>
        </g>
<g opacity="0.95">
            <rect x="1257" y="387" width="6" height="23" fill="#2B1C17"/>
            <polygon points="1260,319 1240.0,369 1280.0,369" fill="#223A31"/>
            <polygon points="1260,343 1231,394 1289,394" fill="#223A31"/>
        </g>
<g opacity="0.95">
            <rect x="1347" y="385" width="6" height="25" fill="#2B1C17"/>
            <polygon points="1350,310 1336.0,365 1364.0,365" fill="#223A31"/>
            <polygon points="1350,336 1330,392 1370,392" fill="#223A31"/>
        </g>
<g opacity="0.95">
            <rect x="1437" y="388" width="6" height="22" fill="#2B1C17"/>
            <polygon points="1440,322 1423.0,370 1457.0,370" fill="#223A31"/>
            <polygon points="1440,345 1416,394 1464,394" fill="#223A31"/>
        </g>
<g opacity="0.95">
            <rect x="1527" y="390" width="6" height="20" fill="#2B1C17"/>
            <polygon points="1530,330 1510.0,374 1550.0,374" fill="#223A31"/>
            <polygon points="1530,351 1501,396 1559,396" fill="#223A31"/>
        </g>
<g opacity="0.95">
            <rect x="1617" y="396" width="6" height="14" fill="#2B1C17"/>
            <polygon points="1620,353 1606.0,384 1634.0,384" fill="#223A31"/>
            <polygon points="1620,368 1600,400 1640,400" fill="#223A31"/>
        </g>
<g opacity="0.95">
            <rect x="1707" y="398" width="6" height="12" fill="#2B1C17"/>
            <polygon points="1710,364 1693.0,389 1727.0,389" fill="#223A31"/>
            <polygon points="1710,376 1686,402 1734,402" fill="#223A31"/>
        </g>
<g opacity="0.95">
            <rect x="1797" y="403" width="6" height="7" fill="#2B1C17"/>
            <polygon points="1800,382 1780.0,397 1820.0,397" fill="#223A31"/>
            <polygon points="1800,389 1771,405 1829,405" fill="#223A31"/>
        </g>
<g opacity="0.95">
            <rect x="1887" y="402" width="6" height="8" fill="#2B1C17"/>
            <polygon points="1890,378 1876.0,396 1904.0,396" fill="#223A31"/>
            <polygon points="1890,386 1870,404 1910,404" fill="#223A31"/>
        </g>
<g opacity="0.95">
            <rect x="1977" y="402" width="6" height="8" fill="#2B1C17"/>
            <polygon points="1980,377 1963.0,395 1997.0,395" fill="#223A31"/>
            <polygon points="1980,386 1956,404 2004,404" fill="#223A31"/>
        </g>
<g opacity="0.95">
            <rect x="2067" y="397" width="6" height="13" fill="#2B1C17"/>
            <polygon points="2070,357 2050.0,386 2090.0,386" fill="#223A31"/>
            <polygon points="2070,371 2041,400 2099,400" fill="#223A31"/>
        </g>
<g opacity="0.95">
            <rect x="2157" y="394" width="6" height="16" fill="#2B1C17"/>
            <polygon points="2160,346 2146.0,381 2174.0,381" fill="#223A31"/>
            <polygon points="2160,363 2140,398 2180,398" fill="#223A31"/>
        </g>
<g opacity="0.95">
            <rect x="2247" y="388" width="6" height="22" fill="#2B1C17"/>
            <polygon points="2250,323 2233.0,371 2267.0,371" fill="#223A31"/>
            <polygon points="2250,346 2226,394 2274,394" fill="#223A31"/>
        </g>
<g opacity="0.95">
            <rect x="2337" y="387" width="6" height="23" fill="#2B1C17"/>
            <polygon points="2340,318 2320.0,369 2360.0,369" fill="#223A31"/>
            <polygon points="2340,342 2311,393 2369,393" fill="#223A31"/>
        </g>
<g opacity="0.95">
            <rect x="2427" y="385" width="6" height="25" fill="#2B1C17"/>
            <polygon points="2430,310 2416.0,365 2444.0,365" fill="#223A31"/>
            <polygon points="2430,336 2410,392 2450,392" fill="#223A31"/>
        </g>
<g opacity="0.95">
            <rect x="2517" y="388" width="6" height="22" fill="#2B1C17"/>
            <polygon points="2520,323 2503.0,371 2537.0,371" fill="#223A31"/>
            <polygon points="2520,346 2496,394 2544,394" fill="#223A31"/>
        </g>
<g opacity="0.95">
            <rect x="2607" y="390" width="6" height="20" fill="#2B1C17"/>
            <polygon points="2610,332 2590.0,375 2630.0,375" fill="#2B273B"/>
            <polygon points="2610,352 2581,396 2639,396" fill="#2B273B"/>
        </g>
<g opacity="0.95">
            <rect x="2697" y="396" width="6" height="14" fill="#2B1C17"/>
            <polygon points="2700,356 2686.0,386 2714.0,386" fill="#2B273B"/>
            <polygon points="2700,370 2680,400 2720,400" fill="#2B273B"/>
        </g>
<g opacity="0.95">
            <rect x="2787" y="399" width="6" height="11" fill="#2B1C17"/>
            <polygon points="2790,366 2773.0,390 2807.0,390" fill="#2B273B"/>
            <polygon points="2790,377 2766,402 2814,402" fill="#2B273B"/>
        </g>
<g opacity="0.95">
            <rect x="2877" y="403" width="6" height="7" fill="#2B1C17"/>
            <polygon points="2880,383 2860.0,398 2900.0,398" fill="#2B273B"/>
            <polygon points="2880,390 2851,405 2909,405" fill="#2B273B"/>
        </g>
<g opacity="0.95">
            <rect x="2967" y="402" width="6" height="8" fill="#2B1C17"/>
            <polygon points="2970,378 2956.0,396 2984.0,396" fill="#2B273B"/>
            <polygon points="2970,386 2950,404 2990,404" fill="#2B273B"/>
        </g>
<g opacity="0.95">
            <rect x="3057" y="402" width="6" height="8" fill="#2B1C17"/>
            <polygon points="3060,376 3043.0,395 3077.0,395" fill="#2B273B"/>
            <polygon points="3060,385 3036,404 3084,404" fill="#2B273B"/>
        </g>
<g opacity="0.95">
            <rect x="3147" y="396" width="6" height="14" fill="#2B1C17"/>
            <polygon points="3150,355 3130.0,385 3170.0,385" fill="#2B273B"/>
            <polygon points="3150,369 3121,400 3179,400" fill="#2B273B"/>
        </g>
<g opacity="0.95">
            <rect x="3237" y="393" width="6" height="17" fill="#2B1C17"/>
            <polygon points="3240,343 3226.0,380 3254.0,380" fill="#2B273B"/>
            <polygon points="3240,360 3220,398 3260,398" fill="#2B273B"/>
        </g>
<g opacity="0.95">
            <rect x="3327" y="388" width="6" height="22" fill="#2B1C17"/>
            <polygon points="3330,321 3313.0,370 3347.0,370" fill="#2B273B"/>
            <polygon points="3330,344 3306,394 3354,394" fill="#2B273B"/>
        </g>
<g opacity="0.95">
            <rect x="3417" y="387" width="6" height="23" fill="#2B1C17"/>
            <polygon points="3420,317 3400.0,368 3440.0,368" fill="#2B273B"/>
            <polygon points="3420,341 3391,393 3449,393" fill="#2B273B"/>
        </g>
<g opacity="0.95">
            <rect x="3507" y="385" width="6" height="25" fill="#2B1C17"/>
            <polygon points="3510,310 3496.0,365 3524.0,365" fill="#2B273B"/>
            <polygon points="3510,336 3490,392 3530,392" fill="#2B273B"/>
        </g>
<g opacity="0.95">
            <rect x="3597" y="389" width="6" height="21" fill="#2B1C17"/>
            <polygon points="3600,325 3583.0,372 3617.0,372" fill="#2B273B"/>
            <polygon points="3600,347 3576,395 3624,395" fill="#2B273B"/>
        </g>
<g opacity="0.95">
            <rect x="3687" y="391" width="6" height="19" fill="#2B1C17"/>
            <polygon points="3690,335 3670.0,376 3710.0,376" fill="#2B273B"/>
            <polygon points="3690,354 3661,396 3719,396" fill="#2B273B"/>
        </g>
<g opacity="0.95">
            <rect x="3777" y="397" width="6" height="13" fill="#2B1C17"/>
            <polygon points="3780,358 3766.0,387 3794.0,387" fill="#2B273B"/>
            <polygon points="3780,372 3760,401 3800,401" fill="#2B273B"/>
        </g>
<g opacity="0.95">
            <rect x="3867" y="400" width="6" height="10" fill="#2B1C17"/>
            <polygon points="3870,368 3853.0,391 3887.0,391" fill="#2B273B"/>
            <polygon points="3870,379 3846,402 3894,402" fill="#2B273B"/>
        </g>
<g opacity="0.95">
            <rect x="3957" y="403" width="6" height="7" fill="#2B1C17"/>
            <polygon points="3960,383 3940.0,398 3980.0,398" fill="#2B273B"/>
            <polygon points="3960,390 3931,405 3989,405" fill="#2B273B"/>
        </g>
<g opacity="0.95">
            <rect x="4047" y="402" width="6" height="8" fill="#2B1C17"/>
            <polygon points="4050,377 4036.0,395 4064.0,395" fill="#2B273B"/>
            <polygon points="4050,386 4030,404 4070,404" fill="#2B273B"/>
        </g>
</svg>
