<svg xmlns="http://www.w3.org/2000/svg" width="4096" height="512" viewBox="0 0 4096 512" fill="none">
<path d="M 0,310 160,270 420,300 620,215 820,280 1100,210 1360,300 1620,195 1900,292 2200,225 2460,302 2700,240 3020,320 3340,210 3600,260 3880,200 4096,250 L 4096,512 L 0,512 Z" fill="#7C89B7" opacity="0.72"/>
<path d="M 0,340 240,300 520,332 740,268 1040,328 1320,255 1640,336 1980,288 2260,330 2600,265 2880,322 3200,272 3500,340 3760,290 4096,335 L 4096,512 L 0,512 Z" fill="#A49FBF" opacity="0.38"/>
</svg>
