<svg xmlns="http://www.w3.org/2000/svg" width="4096" height="512" viewBox="0 0 4096 512" fill="none">
<path d="M 0,380 220,340 440,356 620,302 830,355 1080,288 1310,365 1510,318 1710,352 1930,300 2200,366 2480,318 2760,388 3050,320 3340,358 3630,300 3890,340 4096,310 L 4096,512 L 0,512 Z" fill="#596A82" opacity="0.82"/>
<path d="M 0,405 260,375 480,395 720,350 980,400 1220,350 1450,405 1700,362 1970,402 2280,355 2590,405 2860,365 3130,405 3430,350 3750,390 4096,360 L 4096,512 L 0,512 Z" fill="#435364" opacity="0.92"/>
</svg>
