<svg xmlns="http://www.w3.org/2000/svg" width="4096" height="512" viewBox="0 0 4096 512" fill="none">

<circle cx="3922" cy="47" r="1" fill="white" opacity="0.39"/>
<circle cx="3289" cy="148" r="1.5" fill="white" opacity="0.83"/>
<circle cx="482" cy="64" r="1.5" fill="white" opacity="0.52"/>
<circle cx="210" cy="172" r="1.5" fill="white" opacity="0.83"/>
<circle cx="731" cy="148" r="1.5" fill="white" opacity="0.35"/>
<circle cx="3531" cy="123" r="1" fill="white" opacity="0.49"/>
<circle cx="636" cy="83" r="1" fill="white" opacity="0.89"/>
<circle cx="3725" cy="51" r="1.5" fill="white" opacity="0.82"/>
<circle cx="509" cy="22" r="1" fill="white" opacity="0.71"/>
<circle cx="3504" cy="63" r="2" fill="white" opacity="0.46"/>
<circle cx="301" cy="73" r="1.5" fill="white" opacity="0.50"/>
<circle cx="3301" cy="175" r="1" fill="white" opacity="0.65"/>
<circle cx="761" cy="118" r="1" fill="white" opacity="0.91"/>
<circle cx="609" cy="79" r="1" fill="white" opacity="0.38"/>
<circle cx="3805" cy="153" r="2" fill="white" opacity="0.80"/>
<circle cx="3198" cy="63" r="1" fill="white" opacity="0.48"/>
<circle cx="3121" cy="64" r="1" fill="white" opacity="0.88"/>
<circle cx="3862" cy="142" r="2" fill="white" opacity="0.37"/>
<circle cx="280" cy="160" r="1" fill="white" opacity="0.64"/>
<circle cx="652" cy="141" r="1" fill="white" opacity="0.53"/>
<circle cx="3717" cy="105" r="1" fill="white" opacity="0.82"/>
<circle cx="3277" cy="32" r="1" fill="white" opacity="0.42"/>
<circle cx="3639" cy="25" r="1" fill="white" opacity="0.73"/>
<circle cx="3921" cy="116" r="1" fill="white" opacity="0.83"/>
<circle cx="45" cy="173" r="1.5" fill="white" opacity="0.42"/>
<circle cx="3621" cy="108" r="1" fill="white" opacity="0.50"/>
<circle cx="676" cy="163" r="1" fill="white" opacity="0.76"/>
<circle cx="726" cy="99" r="1" fill="white" opacity="0.45"/>
<circle cx="4057" cy="177" r="1" fill="white" opacity="0.81"/>
<circle cx="3326" cy="161" r="1" fill="white" opacity="0.89"/>
<circle cx="3278" cy="137" r="2" fill="white" opacity="0.93"/>
<circle cx="107" cy="72" r="1" fill="white" opacity="0.89"/>
<circle cx="3756" cy="151" r="1.5" fill="white" opacity="0.59"/>
<circle cx="3183" cy="167" r="1" fill="white" opacity="0.44"/>
<circle cx="554" cy="125" r="1.5" fill="white" opacity="0.71"/>
<circle cx="3906" cy="162" r="1" fill="white" opacity="0.44"/>
<circle cx="384" cy="49" r="2" fill="white" opacity="0.82"/>
<circle cx="792" cy="60" r="1" fill="white" opacity="0.92"/>
<circle cx="671" cy="39" r="1.5" fill="white" opacity="0.39"/>
<circle cx="3399" cy="41" r="1" fill="white" opacity="0.69"/>
<circle cx="21" cy="149" r="1" fill="white" opacity="0.65"/>
<circle cx="555" cy="104" r="1" fill="white" opacity="0.45"/>
<circle cx="507" cy="116" r="1" fill="white" opacity="0.52"/>
<circle cx="155" cy="85" r="1" fill="white" opacity="0.40"/>
<circle cx="70" cy="130" r="1" fill="white" opacity="0.88"/>
<circle cx="3705" cy="105" r="1.5" fill="white" opacity="0.86"/>
<circle cx="304" cy="169" r="1" fill="white" opacity="0.50"/>
<circle cx="682" cy="68" r="1.5" fill="white" opacity="0.88"/>
<circle cx="313" cy="162" r="1.5" fill="white" opacity="0.67"/>
<circle cx="4080" cy="140" r="1" fill="white" opacity="0.37"/>
<circle cx="584" cy="94" r="1" fill="white" opacity="0.77"/>
<circle cx="149" cy="16" r="1" fill="white" opacity="0.64"/>
<circle cx="3298" cy="16" r="1" fill="white" opacity="0.60"/>
<circle cx="523" cy="138" r="1.5" fill="white" opacity="0.69"/>
<circle cx="3355" cy="90" r="1" fill="white" opacity="0.50"/>
<circle cx="709" cy="15" r="2" fill="white" opacity="0.51"/>
<circle cx="4089" cy="37" r="1.5" fill="white" opacity="0.35"/>
<circle cx="780" cy="37" r="1.5" fill="white" opacity="0.53"/>
<path d="M3540 82 L3660 54" stroke="white" stroke-width="2" stroke-linecap="round" opacity="0.8"/>
<path d="M3532 84 L3660 54" stroke="#B8D8FF" stroke-width="5" stroke-linecap="round" opacity="0.2"/>
</svg>
